<?xml version="1.0" standalone="no"?>
<!DOCTYPE svg PUBLIC "-//W3C//DTD SVG 20010904//EN"
 "http://www.w3.org/TR/2001/REC-SVG-20010904/DTD/svg10.dtd">
<svg version="1.0" xmlns="http://www.w3.org/2000/svg"
 width="500.000000pt" height="500.000000pt" viewBox="0 0 500.000000 500.000000"
 preserveAspectRatio="xMidYMid meet">
<g transform="translate(0.000000,500.000000) scale(0.050000,-0.050000)"
fill="#c44525" stroke="none">
<path d="M0 5000 l0 -5000 5000 0 5000 0 0 5000 0 5000 -5000 0 -5000 0 0
-5000z m5529 3455 c8 -47 18 -121 23 -165 6 -44 22 -170 36 -280 15 -110 21
-206 14 -212 -15 -17 -542 -43 -542 -28 0 16 85 176 170 320 38 66 98 174 133
240 125 239 145 254 166 125z m-1126 -111 c61 -89 298 -395 449 -579 l70 -85
264 -3 c145 -1 370 -8 500 -15 l237 -12 57 -136 c87 -207 35 -191 611 -193
597 -2 609 -5 596 -125 -19 -163 -78 -453 -163 -796 l-37 -150 -169 -15 c-92
-8 -356 -28 -586 -44 -484 -35 -450 -23 -375 -134 82 -120 891 -1409 963
-1535 17 -29 35 -56 41 -62 6 -5 76 -113 154 -240 79 -126 198 -308 264 -404
67 -96 121 -179 121 -185 0 -6 34 -61 75 -124 181 -273 428 -661 449 -702 12
-25 29 -45 36 -45 12 0 398 481 770 961 127 164 136 130 49 -173 -34 -120 -70
-249 -79 -288 -22 -98 -82 -307 -170 -600 -41 -137 -93 -317 -114 -400 -21
-82 -45 -156 -53 -164 -16 -17 -3237 -29 -3254 -12 -6 6 17 92 51 190 l63 179
293 35 c162 20 297 38 300 42 4 3 72 228 153 500 172 582 123 514 437 594 229
58 255 69 250 105 -8 54 -226 26 -608 -80 -20 -5 -139 -352 -291 -843 l-39
-126 -135 155 c-74 85 -192 225 -262 310 l-127 155 46 155 c25 85 84 281 132
435 75 239 83 283 59 307 -44 45 -85 13 -117 -91 -79 -259 -299 -983 -363
-1196 -129 -426 -261 -820 -279 -833 -10 -7 -166 -14 -345 -15 -378 -3 -354
-21 -280 218 l46 149 109 33 108 33 -4 1417 c-2 780 -8 1868 -13 2418 -22
2421 -33 2225 110 2014z m-220 -3799 c1 -173 4 -337 7 -365 10 -96 10 -96
-376 -86 -435 12 -515 -1 -537 -84 -19 -72 -32 -65 133 -77 167 -12 138 1 189
-82 66 -106 78 -317 25 -436 -51 -117 -48 -119 148 -103 l163 13 25 -76 c23
-68 20 -476 -3 -499 -5 -4 -56 -10 -114 -12 -91 -5 -109 -12 -124 -52 -11 -27
-35 -46 -58 -46 -28 0 -45 -21 -60 -75 -45 -162 -9 -345 68 -345 50 0 82 -69
59 -128 -13 -34 110 -32 -1731 -33 -649 0 -608 -9 -690 143 -55 103 -51 360 8
472 57 107 94 126 246 126 l123 0 -16 55 c-19 61 -23 247 -8 325 10 48 6 50
-79 43 -125 -9 -261 15 -274 48 -21 53 11 129 54 129 51 0 84 81 84 205 0 102
-46 195 -96 195 -40 0 -78 99 -49 128 15 15 235 22 686 22 l664 0 124 242 124
242 266 92 c146 51 316 107 376 125 61 18 223 72 360 119 138 48 257 87 265
88 8 1 16 -140 18 -313z"/>
<path d="M5385 7307 c-55 -22 -90 -127 -64 -189 57 -137 279 -96 279 52 0 106
-113 178 -215 137z"/>
<path d="M1560 3782 c-76 -53 17 -72 406 -83 l384 -12 -385 -3 -385 -4 0 -89
0 -90 225 -6 225 -6 -233 -5 c-229 -4 -257 -12 -257 -77 0 -17 1876 2 1893 20
25 24 21 307 -4 332 -30 30 -1827 52 -1869 23z"/>
<path d="M1644 2624 c-182 -7 -238 -124 -162 -340 l21 -62 234 -6 c398 -12
1700 -6 1713 8 7 7 7 76 -1 154 l-14 142 -163 4 -162 4 159 7 c161 7 211 26
211 79 0 27 -1245 34 -1836 10z"/>
</g>
</svg>
