<?xml version="1.0" standalone="no"?> <!DOCTYPE svg PUBLIC "-//W3C//DTD SVG 20010904//EN" "http://www.w3.org/TR/2001/REC-SVG-20010904/DTD/svg10.dtd"> <svg version="1.0" xmlns="http://www.w3.org/2000/svg" width="500.000000pt" height="500.000000pt" viewBox="0 0 500.000000 500.000000" preserveAspectRatio="xMidYMid meet"> <g transform="translate(0.000000,500.000000) scale(0.050000,-0.050000)" fill="#c44525" stroke="none"> <path d="M5455 8495 c-16 -25 -58 -99 -92 -165 -35 -66 -95 -174 -133 -240 -85 -144 -170 -304 -170 -320 0 -15 527 11 542 28 7 6 1 102 -14 212 -14 110 -30 236 -36 280 -30 256 -44 286 -97 205z"/> <path d="M4289 8439 c-13 -22 -13 -316 4 -2109 5 -550 11 -1638 13 -2418 l4 -1417 -108 -33 -109 -33 -46 -149 c-74 -239 -98 -221 280 -218 179 1 335 8 345 15 18 13 150 407 279 833 64 213 284 937 363 1196 32 104 73 136 117 91 24 -24 16 -68 -59 -307 -48 -154 -107 -350 -132 -435 l-46 -155 127 -155 c70 -85 188 -225 262 -310 l135 -155 39 126 c152 491 271 838 291 843 382 106 600 134 608 80 5 -36 -21 -47 -250 -105 -314 -80 -265 -12 -437 -594 -81 -272 -149 -497 -153 -500 -3 -4 -138 -22 -300 -42 l-293 -35 -63 -179 c-34 -98 -57 -184 -51 -190 17 -17 3238 -5 3254 12 8 8 32 82 53 164 21 83 73 263 114 400 88 293 148 502 170 600 9 39 45 168 79 288 87 303 78 337 -49 173 -372 -480 -758 -961 -770 -961 -7 0 -24 20 -36 45 -21 41 -268 429 -449 702 -41 63 -75 118 -75 124 0 6 -54 89 -121 185 -66 96 -185 278 -264 404 -78 127 -148 235 -154 240 -6 6 -24 33 -41 62 -72 126 -881 1415 -963 1535 -75 111 -109 99 375 134 230 16 494 36 586 44 l169 15 37 150 c85 343 144 633 163 796 13 120 1 123 -596 125 -576 2 -524 -14 -611 193 l-57 136 -237 12 c-130 7 -355 14 -500 15 l-264 3 -70 85 c-151 184 -388 490 -449 579 -72 107 -95 126 -114 95z m1265 -1162 c85 -80 47 -223 -64 -239 -133 -20 -220 86 -162 198 49 95 149 113 226 41z"/> <path d="M3900 4770 c-137 -47 -299 -101 -360 -119 -60 -18 -230 -74 -376 -125 l-266 -92 -124 -242 -124 -242 -664 0 c-451 0 -671 -7 -686 -22 -29 -29 9 -128 49 -128 50 0 96 -93 96 -195 0 -124 -33 -205 -84 -205 -43 0 -75 -76 -54 -129 13 -33 149 -57 274 -48 85 7 89 5 79 -43 -15 -78 -11 -264 8 -325 l16 -55 -123 0 c-152 0 -189 -19 -246 -126 -59 -112 -63 -369 -8 -472 82 -152 41 -143 690 -143 1841 1 1718 -1 1731 33 23 59 -9 128 -59 128 -37 0 -51 16 -68 75 -42 153 -9 345 60 345 23 0 47 19 58 46 15 40 33 47 124 52 58 2 109 8 114 12 23 23 26 431 3 499 l-25 76 -163 -13 c-196 -16 -199 -14 -148 103 53 119 41 330 -25 436 -51 83 -22 70 -189 82 -165 12 -152 5 -133 77 22 83 102 96 537 84 386 -10 386 -10 376 86 -3 28 -6 192 -7 365 -2 173 -10 314 -18 313 -8 -1 -127 -40 -265 -88z m-471 -1011 c25 -25 29 -308 4 -332 -17 -18 -1893 -37 -1893 -20 0 65 28 73 257 77 l233 5 -225 6 -225 6 0 90 0 89 385 4 385 3 -384 12 c-389 11 -482 30 -406 83 42 29 1839 7 1869 -23z m51 -1145 c0 -53 -50 -72 -211 -79 l-159 -7 162 -4 163 -4 14 -142 c8 -78 8 -147 1 -154 -13 -14 -1315 -20 -1713 -8 l-234 6 -21 62 c-76 216 -20 333 162 340 591 24 1836 17 1836 -10z"/> </g> </svg>