<?xml version="1.0" standalone="no"?> <!DOCTYPE svg PUBLIC "-//W3C//DTD SVG 20010904//EN" "http://www.w3.org/TR/2001/REC-SVG-20010904/DTD/svg10.dtd"> <svg version="1.0" xmlns="http://www.w3.org/2000/svg" width="600.000000pt" height="600.000000pt" viewBox="0 0 600.000000 600.000000" preserveAspectRatio="xMidYMid meet"> <g transform="translate(0.000000,600.000000) scale(0.100000,-0.100000)" fill="#c44525" stroke="none"> <path d="M0 3000 l0 -3000 3000 0 3000 0 0 3000 0 3000 -3000 0 -3000 0 0 -3000z m3777 2237 c28 -22 74 -120 118 -252 63 -193 83 -279 94 -425 6 -69 15 -140 20 -158 5 -17 13 -67 16 -110 6 -64 3 -95 -15 -168 -12 -49 -27 -98 -32 -108 -9 -17 -12 -18 -22 -5 -12 17 -46 32 -46 21 0 -4 22 -44 49 -88 44 -74 101 -191 129 -269 25 -68 62 -211 62 -240 l0 -30 -45 50 -45 50 15 -50 c24 -81 57 -256 50 -263 -3 -3 -17 7 -31 23 l-25 30 5 -57 c4 -32 8 -82 11 -110 l6 -53 -83 -85 c-83 -85 -146 -188 -162 -267 -4 -17 -13 -36 -19 -41 -7 -5 -61 -14 -122 -21 -146 -16 -167 -22 -325 -96 -74 -34 -180 -79 -235 -100 -134 -50 -160 -47 -335 34 -299 139 -373 160 -592 168 l-156 6 -11 43 c-19 73 -55 146 -109 216 -48 61 -52 72 -52 120 l0 53 -26 -28 c-14 -16 -28 -26 -31 -23 -5 5 26 276 33 288 3 5 1 8 -3 8 -5 0 -24 -25 -42 -55 -18 -30 -37 -52 -42 -49 -28 17 38 368 95 511 19 48 33 89 30 92 -2 2 -14 -5 -27 -17 -13 -12 -26 -22 -30 -22 -9 0 -54 90 -85 170 -20 52 -26 87 -29 180 -2 63 -7 184 -10 268 -6 166 6 313 37 447 25 105 56 194 77 217 22 24 79 23 121 -2 64 -39 222 -203 327 -339 58 -75 124 -160 147 -189 l42 -54 22 27 c29 37 141 65 260 65 53 0 132 9 190 21 124 26 258 24 279 -4 11 -16 21 -2 90 130 192 367 310 532 395 556 18 5 51 -3 67 -16z m638 -2317 c61 -27 122 -76 149 -118 38 -60 143 -296 176 -394 38 -112 42 -224 10 -276 -11 -18 -24 -31 -29 -28 -5 3 -12 27 -16 53 -7 50 -36 126 -51 136 -5 3 -7 -42 -6 -100 2 -58 1 -120 -2 -139 -9 -47 -65 -104 -103 -104 l-30 0 -5 108 c-3 66 -11 120 -21 142 l-15 35 -1 -55 c-3 -125 -45 -220 -98 -220 -31 0 -80 26 -92 48 -6 11 -9 78 -8 150 1 85 -2 135 -9 142 -8 8 -13 -1 -17 -33 -9 -61 -45 -154 -63 -161 -30 -11 -82 21 -104 64 -26 50 -28 99 -16 333 9 174 4 198 -27 131 -16 -32 -21 -35 -45 -29 -42 10 -46 20 -29 68 30 90 113 194 181 229 94 49 189 55 271 18z m-2711 4 c70 -24 157 -109 201 -196 38 -77 44 -112 19 -122 -33 -13 -54 -6 -60 19 -3 13 -12 29 -19 35 -21 18 -26 -73 -10 -225 18 -184 2 -270 -60 -311 -55 -36 -95 4 -119 118 -14 63 -14 63 -26 33 -8 -21 -10 -63 -6 -139 l6 -108 -34 -34 c-55 -55 -118 -41 -147 34 -6 15 -14 68 -18 117 l-7 90 -22 -69 c-15 -45 -22 -93 -22 -142 0 -72 -1 -74 -24 -74 -41 0 -84 46 -102 108 -13 43 -15 78 -11 147 6 82 5 88 -9 70 -14 -18 -33 -76 -48 -147 -9 -38 -20 -35 -42 10 -30 59 -24 166 15 275 49 136 145 341 185 396 38 51 110 103 168 120 52 15 140 12 192 -5z m647 -429 c114 -21 174 -43 386 -142 l181 -85 4 -682 c2 -374 2 -686 0 -693 -2 -7 -35 13 -78 47 -227 181 -505 270 -841 270 -226 0 -397 -34 -793 -158 -241 -75 -426 -121 -505 -124 -39 -1 -51 3 -67 21 -10 13 -18 30 -18 37 0 8 56 157 124 332 68 174 161 415 207 534 46 120 86 218 89 218 3 0 15 -17 28 -38 13 -21 43 -51 66 -67 24 -16 53 -44 65 -63 26 -39 96 -74 150 -75 20 0 79 2 131 5 115 5 177 31 222 94 18 26 47 49 77 63 66 29 127 93 153 161 24 61 28 148 14 267 l-9 71 54 10 c85 15 268 14 360 -3z m1587 9 c22 -6 22 -9 15 -68 -4 -33 -8 -104 -7 -156 0 -76 5 -105 23 -147 27 -60 88 -121 158 -156 26 -14 58 -39 70 -56 13 -16 44 -42 69 -57 39 -23 60 -27 147 -32 187 -10 219 -2 286 70 20 22 57 54 82 72 48 35 99 119 99 162 0 57 22 22 78 -124 33 -86 96 -249 140 -362 252 -650 261 -677 230 -708 -30 -30 -218 4 -478 85 -502 158 -677 191 -950 180 -302 -12 -563 -102 -767 -262 l-81 -63 -6 45 c-3 25 -6 334 -6 687 l0 641 103 37 c56 20 154 61 217 91 137 65 212 93 300 111 67 15 237 20 278 10z"/> <path d="M3662 5014 c-75 -91 -212 -432 -212 -528 0 -30 8 -37 86 -91 47 -32 122 -91 167 -133 45 -41 83 -69 85 -63 6 18 -54 105 -106 153 -26 24 -73 63 -106 87 -58 43 -58 43 -52 85 10 60 103 334 133 386 14 25 33 66 44 93 24 59 5 65 -39 11z"/> <path d="M1910 4854 c0 -3 22 -30 48 -60 54 -61 189 -296 227 -397 14 -37 25 -70 25 -73 0 -2 -23 -28 -51 -57 -99 -100 -180 -230 -167 -268 2 -7 32 24 67 69 34 46 99 118 143 162 79 76 80 79 74 115 -23 123 -223 443 -310 496 -31 19 -56 25 -56 13z"/> <path d="M3385 3828 c-48 -26 -74 -62 -86 -116 -11 -57 -5 -142 12 -142 5 0 9 4 9 9 0 6 39 7 94 4 l94 -6 57 55 c31 31 66 60 77 65 19 8 19 9 -1 35 -12 15 -49 45 -82 67 -50 34 -70 41 -108 41 -25 0 -55 -6 -66 -12z m60 -78 c13 -41 -43 -70 -64 -33 -13 25 5 53 34 53 15 0 26 -7 30 -20z"/> <path d="M2444 3726 c-40 -18 -100 -71 -136 -120 -34 -47 -35 -56 -6 -56 13 0 46 -16 75 -36 69 -48 114 -53 198 -23 52 18 68 20 74 10 6 -10 10 -9 15 4 23 61 -40 181 -116 221 -33 17 -64 17 -104 0z m96 -84 c0 -23 -19 -42 -42 -42 -21 0 -40 32 -32 54 12 32 74 22 74 -12z"/> <path d="M2993 3240 c-45 -9 -139 -47 -162 -64 -27 -21 -53 -96 -46 -133 10 -53 25 -80 52 -92 37 -17 59 -13 93 15 35 30 45 27 36 -10 -7 -28 -51 -56 -88 -56 -22 0 -22 -1 8 -31 17 -17 60 -41 95 -53 61 -23 64 -25 67 -59 3 -35 2 -37 -65 -70 -157 -79 -289 -70 -380 25 -17 18 -49 65 -71 103 -45 80 -70 92 -98 50 -17 -25 -16 -28 4 -68 30 -60 102 -148 148 -180 112 -77 239 -85 394 -26 92 35 122 37 297 24 75 -6 102 -4 149 11 80 25 160 100 213 203 58 112 54 171 -11 171 -24 0 -29 -5 -38 -42 -19 -74 -22 -82 -45 -128 -46 -91 -126 -140 -227 -140 -52 0 -168 34 -180 53 -17 27 -8 57 22 72 42 22 99 73 114 104 l14 26 -42 0 c-50 0 -76 18 -76 51 0 28 11 30 45 8 39 -25 90 -12 104 28 27 76 -5 155 -77 189 -52 25 -175 35 -249 19z m199 -58 c22 -22 -6 -32 -145 -49 -106 -13 -140 -14 -149 -5 -20 20 11 41 83 57 74 17 193 15 211 -3z"/> </g> </svg>